# xmcd
#
# Track frame offsets: 
#        150
#        17064
#        37266
#        55031
#        71729
#        91434
#        110630
#        123501
#        134289
#        147598
#        174195
#        195645
#        214069
#        229520
#        254081
#        269458
#        299413
#
# Disc length: 4185 seconds
#
# Revision: 0
# Processed by: cddbd v1.5.2PL0 Copyright (c) Steve Scherf et al.
# Submitted via: ExactAudioCopy v1.0b4
#
DISCID=0d105711
DTITLE=Allison Moorer - The essential collection CD1
DYEAR=2015
DGENRE=
TTITLE0=Call my name
TTITLE1=Long black train
TTITLE2=Alabama song
TTITLE3=Pardon me
TTITLE4=Day you said goodbye
TTITLE5=It's time I tried
TTITLE6=Mark my word
TTITLE7=The one that got away (Got away with my heart)
TTITLE8=I found a letter
TTITLE9=Ruby jewel was here
TTITLE10=Is heaven good enough for you
TTITLE11=No place for a heart
TTITLE12=Best that I can do
TTITLE13=Bring me all your lovin'
TTITLE14=Is it worth it
TTITLE15=No next time
TTITLE16=The hardest part
EXTD=
EXTT0=
EXTT1=
EXTT2=
EXTT3=
EXTT4=
EXTT5=
EXTT6=
EXTT7=
EXTT8=
EXTT9=
EXTT10=
EXTT11=
EXTT12=
EXTT13=
EXTT14=
EXTT15=
EXTT16=
PLAYORDER=
